# xmcd
#
# Track frame offsets:
#	150
#	7240
#	54311
#	102894
#
# Disc length: 1659 seconds
#
# Revision: 1
# Processed by: cddbd v1.5.2PL0 Copyright (c) Steve Scherf et al.
# Submitted via: audiograbber 1.83.01
#
DISCID=2a067904
DTITLE=Grateful Dead - 78-04-11 Fox Theatre, Atlanta GA
DYEAR=1900
DGENRE=
TTITLE0=Space
TTITLE1=Iko Iko
TTITLE2=Sugar Magnolia
TTITLE3=Johnny B Goode
EXTD=
EXTT0=
EXTT1=
EXTT2=
EXTT3=
PLAYORDER=
